<?xml version="1.0" encoding="utf-8"?>
<!-- Generator: Adobe Illustrator 22.0.1, SVG Export Plug-In . SVG Version: 6.00 Build 0)  -->
<svg version="1.1" id="Laag_1" xmlns="http://www.w3.org/2000/svg" xmlns:xlink="http://www.w3.org/1999/xlink" x="0px" y="0px"
	 viewBox="0 0 692.9 204" style="enable-background:new 0 0 692.9 204;" xml:space="preserve">
<style type="text/css">
	.st0{fill:url(#SVGID_1_);}
	.st1{fill:url(#SVGID_2_);}
	.st2{fill:url(#SVGID_3_);}
	.st3{fill:#FFFFFF;}
	.st4{fill:#CC9F53;}
</style>
<g>
	<g>
		
			<linearGradient id="SVGID_1_" gradientUnits="userSpaceOnUse" x1="111.1859" y1="93.8469" x2="106.2682" y2="93.8469" gradientTransform="matrix(0.9982 -5.921954e-02 5.921954e-02 0.9982 -14.7872 33.2406)">
			<stop  offset="0" style="stop-color:#000000"/>
			<stop  offset="0.8364" style="stop-color:#676767"/>
		</linearGradient>
		<polygon class="st0" points="99.3,120.5 99.3,120.5 99.3,120.5 		"/>
		
			<linearGradient id="SVGID_2_" gradientUnits="userSpaceOnUse" x1="200.7335" y1="1.2046" x2="67.072" y2="1.2046" gradientTransform="matrix(0.9456 -0.3252 0.3252 0.9456 12.3778 174.29)">
			<stop  offset="0" style="stop-color:#000000"/>
			<stop  offset="0.8364" style="stop-color:#676767"/>
		</linearGradient>
		<polygon class="st1" points="151,127.9 151,127.9 151,127.9 		"/>
		
			<linearGradient id="SVGID_3_" gradientUnits="userSpaceOnUse" x1="166.3087" y1="104.307" x2="63.0635" y2="104.307" gradientTransform="matrix(0.9982 -5.921954e-02 5.921954e-02 0.9982 -14.7872 33.2406)">
			<stop  offset="0" style="stop-color:#000000"/>
			<stop  offset="0.8364" style="stop-color:#676767"/>
		</linearGradient>
		<polygon class="st2" points="151,127.9 151,127.9 151,127.9 		"/>
		<path d="M94.4,70.4c0.1,0,0.1-0.1,0-0.1c-4.4-1.1-54.1-4.6-54.1-4.6s-16.4-3-25.8-8.8v0.8V67l67.7,3.4
			C82.2,70.4,90.3,70,94.4,70.4z"/>
		<path d="M29.8,119.6l0.2-3.3l-2.2-1.6l-5.4,0.5l3-2.4l3.7-0.7c1.7-0.3,3.4-0.1,4.9,0.7l3,1.5l2.8,0.5l4.3-1.2l10.9,2.5
			c5.3-3.5,10.8-6.8,16.6-10l0,0c0,0,0,0,0,0c0.5-0.3,1-0.5,1.4-0.8c1-0.6,2.3-1.3,3.4-1.8c2.6-1.2-2.6-5.6-0.8-7.8
			c0.1-0.1-0.1-0.2-0.1-0.1c-3,3.2-6.7,3.8-10.8,4.8c-2.8,0.7-24.5,3-24.5,3l7.2-15.1c0,0,24.7-3.2,35.5-7.7c0.1,0,0-0.1,0-0.1
			c-6,1.5-30.2,5.2-36.1,4.9c-9-0.5-21.9-4.6-32-10.2v19.6V121c0,0.5,0,1,0,1.6l4.8-4.9L29.8,119.6z"/>
		<path d="M107.4,61.7C94.8,56.8,42.6,44.5,30,40.9c-5.1-1.5-10.5-3-15.5-4.9v6.3C30.2,45.3,101.2,59.8,107.4,61.7
			C107.4,61.7,107.4,61.7,107.4,61.7z"/>
		<path d="M51.8,118.2l-0.1-0.3l-6.5-0.5l-6.8,1.5l-3.6,4.2l-5.5,2.8l-10.9-2.9l-1.8,1.4c-0.6,0.4-1.2,0.7-1.8,1
			c0.7,7.6,3,14.7,6.7,21C29.7,136.2,39.8,126.3,51.8,118.2z"/>
		<path class="st3" d="M13.4,123.7l-6,1.2l2.9,0.7c1.5,0.3,3,0.2,4.4-0.3c-0.1-0.9-0.1-1.9-0.2-2.8L13.4,123.7z"/>
		<g>
			<path d="M177.2,107.3v-57c0-23.4-19-42.4-42.4-42.4L83.6,8V7.9H14.5v11c0,0,91.4,19.3,106.6,26.4c4.3,1.9,6.8,3,7.8,5.2
				c2.3,4.9-2.2,8.9-5.8,11.7c-4.2,3.2-5.9,4-13,8.9C96.2,81,96.5,91,96.5,91l15.5-4.5l20.8-3.9l-9.1-2.5c0.6-0.1,8.2-0.5,23.2-3.6
				c11.1-2.3,25.9-1.2,26.6,5.9c0,0-1.2,2.3-4.3,3.7c0,0-3.8-3.6-10.9-2c0,0,0.4,7.7,9.2,4.5c0,0,1.5,0.9-0.2,3.6
				c-1.4,2.2-5.6,4.8-11.7,7c-5.2,1.9-4.7,7.7-11.1,11.6l-2.3,2.9l-29.2,44.4l8.7-41.1c-1.7-1.3-3.1,2-5.6,1.9
				c0.3-2.1-0.6-7.8-1.4-9.9c0-0.1-0.2-0.1-0.2,0c0.1,3.7-0.8,7.5-2,11.1c-0.3,0.9-2.3,1.4-4.7,0.9c-2.4-0.5-6.3-2.7-6.5-2.9
				c0.1-0.3-2.9-4.5-2.2-6.5c0,0,0,0,0,0c-0.9,1-0.8,1.8-0.8,3.1c0,1-0.2,1.9-0.4,2.8c-0.1,0-4.8-1.6-8.5-2.6
				c-21.7,8.1-43.2,24.8-60.5,41c9,9.1,21.5,14.7,35.2,14.7h51.3h5.1h7.1h49.6v-47.7c0-0.7,0-1.3,0-2L177.2,107.3z"/>
			<g>
				<path class="st4" d="M14.5,12.2c0,0,98.9,20.4,116.5,30.6c2.8,1.5,6.4,3.5,7.8,6.4c2.4,4.9-2,9.7-5.6,12.5
					c-4.2,3.2-8.4,6.3-13,8.9c-12.8,7.4-13.5,12.8-13.5,12.8s32.1-16.2,41.6-23.5c3.6-2.8,8.1-5.7,6.3-11.4
					c-1.5-4.6-4.7-9.5-24.3-15.9c-8.4-2.7-88.5-24.8-88.5-24.8H14.5L14.5,12.2z"/>
				<path class="st4" d="M186.5,85.1c-3.2-1.1-9.3-1.4-9.3-1.4c-2.5,3.8-5.6,4.6-5.6,4.6c1.3,4.2-5.2,9.2-5.2,9.2
					c11.5-1.5,14.2-4.9,16.5-5.2c2.2-0.2,2.7,4.2,2.7,4.2C193.8,91.1,189.7,86.2,186.5,85.1z"/>
			</g>
		</g>
	</g>
	<path d="M227.9,75.5c-4.1,0-6.8,1.8-8.3,5.6l-31.4,88.5h18.1l6.2-20h39.8l6.5,20h18.1l-34.2-94.1H227.9z M216.9,136l15.5-47
		l15.5,47H216.9z"/>
	<path d="M323.2,99.8c-1.5,1.6-2.3,3.5-2.3,5.8v38.3c0,4.9-1.6,8.6-4.6,11c-3,2.2-6.3,3.4-10,3.4c-3.7,0-7-1.1-9.9-3.4
		c-3-2.3-4.5-6-4.5-11V97.4H275V140c0,12.4,3.1,20.6,9.3,24.4c6.4,4,13.6,6.2,21.4,6.6c8,0,15.4-2,22.1-6c6.5-3.8,9.7-12.2,9.7-25
		V97.4h-8.5C326.6,97.4,324.7,98.2,323.2,99.8z"/>
	<path d="M437.5,107.8c-3.4-4.7-7.7-8.1-12.7-10.2c-5.3-2.1-11-2.5-16.9-1.1c-5.9,1.4-10.3,4.7-13.5,10.1l-2.6,4.3V83.6
		c0-2.3-0.8-4.1-2.4-5.8c-1.6-1.6-3.5-2.4-5.8-2.4h-8.2v80.6h-7.6c-7,0-7-3.5-7-7.8v-39.8h3.4c2.3,0,4.2-0.7,5.8-2.3
		c1.6-1.5,2.4-3.4,2.4-5.9v-2.5h-11.5V83.6c0-2.3-0.8-4.1-2.4-5.8c-1.6-1.6-3.4-2.4-5.5-2.4h-8.7v81.4c0,8,2.3,12.6,8.9,12.7
		c4.8,0.1,20.8,0,30.7,0c4.4,0,8-3.6,8-8.1v-29.2c0-6.8,1.5-12.3,4.5-16.3c3.1-4.1,7.5-6.2,13.2-6.2c5.3,0,9.6,2.2,12.7,6.5
		c1.8,2.6,3,5.2,3.5,7.7c0.5,2.4,0.7,5.1,0.7,8v37.5h16.1v-42.3C442.6,119,440.9,112.5,437.5,107.8z"/>
	<path d="M492.2,97.9c-4-1.5-8.5-2.2-13.3-2.2c-2.2,0-4.5,0.2-6.8,0.5c-7.3,1-13.4,4.2-18,9.5c-2.9,3.2-5,7.3-6.3,12.1
		c-1.4,4.9-2.1,9.9-2.1,14.8c0,6,0.8,11.9,2.5,17.5c1.6,5.4,4.3,9.8,8,13c3.6,3.2,8.4,5.5,14.5,6.9c6,1.4,12.1,1.2,18.1-0.4
		c6.6-1.4,12.1-5.1,16.4-11c2-2.8,3.6-6.4,4.9-10.6c1.3-4.2,1.9-9.2,1.9-15.1c0-8-1.6-15.1-4.6-21C504,105.3,499,100.6,492.2,97.9z
		 M491.6,150.3c-2.4,3.6-5.3,6-8.5,6.9c-1.4,0.4-2.9,0.6-4.3,0.6c-1.7,0-3.5-0.3-5.2-0.9c-3.1-1.1-5.2-2.5-6.6-4.3
		c-3-3.6-4.7-9.7-5.1-18.7c-0.4-8.9,1.5-15.7,5.7-20.3c1.5-1.5,3.8-2.7,6.8-3.6c3.1-0.9,6.2-0.9,9.3,0.2c3.1,1,5.9,3.4,8.2,7.1
		c2.3,3.6,3.5,9,3.5,16C495.3,141.1,494.1,146.7,491.6,150.3z"/>
	<path d="M540,99.3c-4.6,1.3-8.6,3.3-12,5.9c-3.6,2.8-6.4,6.7-8.5,11.4c-2.1,4.8-3.1,10.8-3.1,17.9v34.9h16.9v-37.2
		c0-6,1.5-10.5,4.4-13.4c2.9-2.9,7.3-4.4,13.1-4.4h5.1l0-17.2h-1.4C549.5,97.4,544.6,98.1,540,99.3z"/>
	<path d="M569.6,75.9h-8.7v12.7h16.9V84c0-2.3-0.8-4.1-2.4-5.8C573.8,76.7,571.9,75.9,569.6,75.9z"/>
	<path d="M569.6,97.4h-8.7v72.1h16.9v-63.9c0-2.3-0.8-4.1-2.4-5.8C573.8,98.2,571.9,97.4,569.6,97.4z"/>
	<path d="M674.1,97.4c-4.3,0-6.7,1.8-7.7,5.7l-14.6,50.9l-16.3-56.6h-4.1h-1.4h-1.4h-11.7h-1.5H614h-13.6V83.6
		c0-2.3-0.8-4.1-2.4-5.8c-1.6-1.6-3.4-2.4-5.5-2.4h-8.7v81.4c0,8,3,12.6,9.6,13.1c6.6,0.5,12.9,0.6,18.6,0.4v-12.6h-4.5
		c-6.1,0-7-3.9-7-6.2v-43.1h17.5h1.5h1.2c0.1,0,0.2,0,0.3,0l0.5,1.4l0.5,1.4l20.7,59c1.5,4.5,0.9,7.9-1.7,10.1c-2.4,2-5.7,3-9.8,3
		h-4v12.8c0.3,0,0.6,0.1,0.9,0.1c0.8,0.1,1.6,0.2,2.2,0.4h3.7c7.4,0,12.7-1.1,15.8-3.1c3.1-2.4,5.8-6.6,7.9-12.6l28.1-83.5H674.1z"
		/>
</g>
</svg>
